<?xml version="1.0" standalone="no"?><!DOCTYPE svg PUBLIC "-//W3C//DTD SVG 1.1//EN" "http://www.w3.org/Graphics/SVG/1.1/DTD/svg11.dtd"><svg t="1695276827688" class="icon" viewBox="0 0 1301 1024" version="1.1" xmlns="http://www.w3.org/2000/svg" p-id="19542" xmlns:xlink="http://www.w3.org/1999/xlink" width="81.3125" height="64"><path d="M144.21593 1000.37787a85.294613 85.294613 0 1 1-116.85362-124.274251l408.156047-383.825759a85.294613 85.294613 0 0 1 120.521289 3.646344l300.428951 318.916559 124.188956-127.94192a85.294613 85.294613 0 0 1 124.38087 2.132366l174.086305 191.912879a85.294613 85.294613 0 0 1-126.363969 114.593313l-113.015362-124.594106-123.03748 126.705148a85.294613 85.294613 0 0 1-123.250716-0.916918L490.298823 674.936274 144.21593 1000.37787zM469.614879 341.178453a170.589226 170.589226 0 1 1 0-341.178453 170.589226 170.589226 0 0 1 0 341.178453z" fill="#4740b3" p-id="19543"></path></svg>