<?xml version="1.0" standalone="no"?><!DOCTYPE svg PUBLIC "-//W3C//DTD SVG 1.1//EN" "http://www.w3.org/Graphics/SVG/1.1/DTD/svg11.dtd"><svg t="1695280044794" class="icon" viewBox="0 0 1024 1024" version="1.1" xmlns="http://www.w3.org/2000/svg" p-id="35089" xmlns:xlink="http://www.w3.org/1999/xlink" width="64" height="64"><path d="M291.6 896h489c44 0 80-36 80-80V331.6c0-44-36-80-80-80h-489c-44 0-80 36-80 80V816c0 44 36 80 80 80z" fill="#FFECB6" p-id="35090"></path><path d="M432.5 867H304.9c-40.8 0-74-33.3-74-74.2V277.4c0-40.9 33.2-74.2 74-74.2h412.8c5.3 0 9.7 4.3 9.7 9.7 0 5.3-4.3 9.7-9.7 9.7H304.9c-30.2 0-54.7 24.6-54.7 54.9v515.3c0 30.2 24.5 54.9 54.7 54.9h127.6c5.3 0 9.7 4.3 9.7 9.7s-4.3 9.6-9.7 9.6zM822 867H629.8c-5.3 0-9.7-4.3-9.7-9.7s4.3-9.7 9.7-9.7H822c30.2 0 54.7-24.6 54.7-54.9V277.4c0-30.2-24.5-54.9-54.7-54.9h-33.5c-5.3 0-9.7-4.3-9.7-9.7 0-5.3 4.3-9.7 9.7-9.7H822c40.8 0 74 33.3 74 74.2v515.3c0 41.1-33.2 74.4-74 74.4zM584.8 867h-68.6c-5.3 0-9.7-4.3-9.7-9.7s4.3-9.7 9.7-9.7h68.6c5.3 0 9.7 4.3 9.7 9.7s-4.4 9.7-9.7 9.7z" fill="" p-id="35091"></path><path d="M166.6 299a151.2 151.7 0 1 0 302.4 0 151.2 151.7 0 1 0-302.4 0Z" fill="#FFDB69" p-id="35092"></path><path d="M482.1 702.4h-90.8c-5 0-9.1-4.1-9.1-9.1V448.4c0-16.5 13.5-30 30-30h49.4c16.5 0 30 13.5 30 30v244.5c-0.1 5.2-4.3 9.5-9.5 9.5z" fill="#FFDB69" p-id="35093"></path><path d="M610.4 702.4h-97.8c-4.3 0-7.8-3.5-7.8-7.8V500.1c0-16.5 13.5-30 30-30h49.4c16.5 0 30 13.5 30 30v198.6c0 2-1.7 3.7-3.8 3.7z" fill="#F4BA64" p-id="35094"></path><path d="M732.4 702.4H629.8v-325c0-16.5 13.5-30 30-30h49.4c16.5 0 30 13.5 30 30v318.2c0 3.7-3.1 6.8-6.8 6.8z" fill="#F7931E" p-id="35095"></path><path d="M799.3 747.6H319.7c-9.8 0-17.7-8-17.7-17.7v-6.5c0-9.8 8-17.7 17.7-17.7h479.6c9.8 0 17.7 8 17.7 17.7v6.5c0 9.7-7.9 17.7-17.7 17.7z" fill="#FFDB69" p-id="35096"></path><path d="M786.2 721.7H332.7c-9.8 0-17.7-8-17.7-17.7 0-9.8 8-17.7 17.7-17.7h453.5c9.8 0 17.7 8 17.7 17.7 0.1 9.8-7.9 17.7-17.7 17.7z" fill="#F4BA64" p-id="35097"></path><path d="M288.8 450.7c-88.7 0-160.8-72.4-160.8-161.3 0-44.7 14.3-66.6 22-78.4l1.6-2.5c2.8-4.5 8.8-5.9 13.3-3 4.5 2.9 5.8 8.8 3 13.4l-1.7 2.7c-7 10.8-18.8 29-18.8 67.9 0 78.3 63.5 142 141.5 142s141.5-63.7 141.5-142-63.5-142-141.5-142c-44.9 0-68.6 13.8-90.3 34.6-3.9 3.7-10 3.5-13.6-0.3-3.7-3.9-3.5-10 0.3-13.7C207 147.2 234.5 128 288.8 128c88.7 0 160.8 72.4 160.8 161.3s-72.1 161.4-160.8 161.4z" fill="" p-id="35098"></path><path d="M367.9 232.7c-1.7-2.9-4.8-4.7-8.3-4.7H292c-5.3 0-9.7 4.3-9.7 9.7s4.3 9.7 9.7 9.7h44.3l-58.2 58.4-28.6-28.7c-3.8-3.8-9.9-3.8-13.6 0l-47.2 47.3c-3.8 3.8-3.8 9.9 0 13.7 1.9 1.9 4.4 2.8 6.8 2.8 2.5 0 4.9-0.9 6.8-2.8l40.4-40.5 28.6 28.7c3.6 3.6 10 3.6 13.6 0l68.2-68.5v54.1c0 5.3 4.3 9.7 9.7 9.7s9.7-4.3 9.7-9.7v-71c0-3.5-1.9-6.5-4.6-8.2z" fill="#F7931E" p-id="35099"></path></svg>